<svg xmlns="http://www.w3.org/2000/svg" viewBox="0 0 64 64">
  <defs>
    <linearGradient id="g" x1="0%" y1="0%" x2="100%" y2="100%">
      <stop offset="0%" stop-color="#1f6b5f" />
      <stop offset="100%" stop-color="#dd9d49" />
    </linearGradient>
  </defs>
  <rect width="64" height="64" rx="18" fill="url(#g)" />
  <path d="M14 42c6-2 10-6 13-12 2 6 6 10 13 12-6 1-10 3-13 8-3-5-7-7-13-8Z" fill="#fff6ea" opacity=".88" />
  <path d="M37 18c3 2 5 5 7 9 2 4 4 6 6 7-4 1-8 3-12 8 0-6-1-10-4-14 1-4 2-7 3-10Z" fill="#fff6ea" />
</svg>
